<svg width="16" height="16" viewBox="0 0 16 16" fill="none" xmlns="http://www.w3.org/2000/svg">
<path d="M8.55792 4.93333C8.26859 3.97333 7.38659 3.26666 6.33325 3.26666C5.27992 3.26666 4.39792 3.97333 4.10859 4.93333H1.33325V6.26666H4.10859C4.39792 7.22666 5.27992 7.93333 6.33325 7.93333C7.38659 7.93333 8.26859 7.22666 8.55792 6.26666H14.7499V4.93333H8.55792ZM6.33325 6.6C5.78192 6.6 5.33325 6.15133 5.33325 5.6C5.33325 5.04866 5.78192 4.6 6.33325 4.6C6.88459 4.6 7.33325 5.04866 7.33325 5.6C7.33325 6.15133 6.88459 6.6 6.33325 6.6Z" fill="#FAFAFA"/>
<path d="M7.52533 10.5333C7.81467 9.57334 8.69667 8.86667 9.75 8.86667C10.8033 8.86667 11.6853 9.57334 11.9747 10.5333H14.75V11.8667H11.9747C11.6853 12.8267 10.8033 13.5333 9.75 13.5333C8.69667 13.5333 7.81467 12.8267 7.52533 11.8667H1.33333V10.5333H7.52533ZM9.75 12.2C10.3013 12.2 10.75 11.7513 10.75 11.2C10.75 10.6487 10.3013 10.2 9.75 10.2C9.19867 10.2 8.75 10.6487 8.75 11.2C8.75 11.7513 9.19867 12.2 9.75 12.2Z" fill="#FAFAFA"/>
</svg>
